<svg xmlns="http://www.w3.org/2000/svg" fill="lightgrey" height="24" viewBox="0 -960 960 960" width="24"><path d="M341.537-140.001H212.309q-30.308 0-51.308-21t-21-51.308V-480q0-70.769 26.77-132.615 26.769-61.846 72.768-107.846 46-45.999 107.846-72.768 61.846-26.77 132.615-26.77t132.615 26.77q61.846 26.769 107.846 72.768 45.999 46 72.768 107.846 26.77 61.846 26.77 132.615v267.691q0 30.308-21 51.308t-51.308 21H618.463v-283.075H760V-480q0-117-81.5-198.5T480-760q-117 0-198.5 81.5T200-480v56.924h141.537v283.075Z"/></svg>